HIERARCHY
ROOT Hips
{
  OFFSET 0.142454 103.394 1.42217
  CHANNELS 6 Xposition Yposition Zposition Zrotation Xrotation Yrotation
  JOINT Spine
  {
    OFFSET 0 10.1816 0.1315
    CHANNELS 6 Xposition Yposition Zposition Zrotation Xrotation Yrotation
    JOINT Spine1
    {
      OFFSET 0 10.0835 -1.0008
      CHANNELS 6 Xposition Yposition Zposition Zrotation Xrotation Yrotation
      JOINT Spine2
      {
        OFFSET 0 9.1 -1.3734
        CHANNELS 6 Xposition Yposition Zposition Zrotation Xrotation Yrotation
        JOINT Neck
        {
          OFFSET 0 16.6717 -2.5162
          CHANNELS 6 Xposition Yposition Zposition Zrotation Xrotation Yrotation
          JOINT Head
          {
            OFFSET 0 9.6179 1.685
            CHANNELS 6 Xposition Yposition Zposition Zrotation Xrotation Yrotation
            JOINT HeadTop_End
            {
              OFFSET 0 17.8152 2.585
              CHANNELS 6 Xposition Yposition Zposition Zrotation Xrotation Yrotation
              End Site
              {
                OFFSET 0 0 0
              }
            }
            JOINT LeftEye
            {
              OFFSET 3.0676 6.4095 9.2836
              CHANNELS 6 Xposition Yposition Zposition Zrotation Xrotation Yrotation
              End Site
              {
                OFFSET 0 0 0
              }
            }
            JOINT RightEye
            {
              OFFSET -3.0676 6.4095 9.2835
              CHANNELS 6 Xposition Yposition Zposition Zrotation Xrotation Yrotation
              End Site
              {
                OFFSET 0 0 0
              }
            }
          }
        }
        JOINT LeftShoulder
        {
          OFFSET 4.5704 10.946 -2.628
          CHANNELS 6 Xposition Yposition Zposition Zrotation Xrotation Yrotation
          JOINT LeftArm
          {
            OFFSET 10.5924 -0.5246 -2.2321
            CHANNELS 6 Xposition Yposition Zposition Zrotation Xrotation Yrotation
            JOINT LeftForeArm
            {
              OFFSET 27.8415 -0.0001 0
              CHANNELS 6 Xposition Yposition Zposition Zrotation Xrotation Yrotation
              JOINT LeftHand
              {
                OFFSET 28.3288 0 0
                CHANNELS 6 Xposition Yposition Zposition Zrotation Xrotation Yrotation
                JOINT LeftHandThumb1
                {
                  OFFSET 2.4661 -1.575 2.6824
                  CHANNELS 6 Xposition Yposition Zposition Zrotation Xrotation Yrotation
                  JOINT LeftHandThumb2
                  {
                    OFFSET 3.2298 -1.8647 1.8647
                    CHANNELS 6 Xposition Yposition Zposition Zrotation Xrotation Yrotation
                    JOINT LeftHandThumb3
                    {
                      OFFSET 2.6526 -1.5315 1.5315
                      CHANNELS 6 Xposition Yposition Zposition Zrotation Xrotation Yrotation
                      End Site
                      {
                        OFFSET 1.9546 -1.1285 1.1285
                      }
                    }
                  }
                }
                JOINT LeftHandIndex1
                {
                  OFFSET 9.1093 -0.5171 2.2601
                  CHANNELS 6 Xposition Yposition Zposition Zrotation Xrotation Yrotation
                  JOINT LeftHandIndex2
                  {
                    OFFSET 3.6764 0 0
                    CHANNELS 6 Xposition Yposition Zposition Zrotation Xrotation Yrotation
                    JOINT LeftHandIndex3
                    {
                      OFFSET 2.8831 0 0
                      CHANNELS 6 Xposition Yposition Zposition Zrotation Xrotation Yrotation
                      End Site
                      {
                        OFFSET 2.3927 0 0
                      }
                    }
                  }
                }
                JOINT LeftHandMiddle1
                {
                  OFFSET 9.5334 0 0
                  CHANNELS 6 Xposition Yposition Zposition Zrotation Xrotation Yrotation
                  JOINT LeftHandMiddle2
                  {
                    OFFSET 3.6982 0 0
                    CHANNELS 6 Xposition Yposition Zposition Zrotation Xrotation Yrotation
                    JOINT LeftHandMiddle3
                    {
                      OFFSET 2.9509 0 0
                      CHANNELS 6 Xposition Yposition Zposition Zrotation Xrotation Yrotation
                      End Site
                      {
                        OFFSET 2.8339 0 0
                      }
                    }
                  }
                }
                JOINT LeftHandRing1
                {
                  OFFSET 9.1045 -0.0439 -1.8651
                  CHANNELS 6 Xposition Yposition Zposition Zrotation Xrotation Yrotation
                  JOINT LeftHandRing2
                  {
                    OFFSET 3.154 0 0
                    CHANNELS 6 Xposition Yposition Zposition Zrotation Xrotation Yrotation
                    JOINT LeftHandRing3
                    {
                      OFFSET 2.9377 0 0
                      CHANNELS 6 Xposition Yposition Zposition Zrotation Xrotation Yrotation
                      End Site
                      {
                        OFFSET 2.6475 0 0
                      }
                    }
                  }
                }
                JOINT LeftHandPinky1
                {
                  OFFSET 8.0778 -0.4887 -3.8061
                  CHANNELS 6 Xposition Yposition Zposition Zrotation Xrotation Yrotation
                  JOINT LeftHandPinky2
                  {
                    OFFSET 3.6 0 0
                    CHANNELS 6 Xposition Yposition Zposition Zrotation Xrotation Yrotation
                    JOINT LeftHandPinky3
                    {
                      OFFSET 2.1142 0 0
                      CHANNELS 6 Xposition Yposition Zposition Zrotation Xrotation Yrotation
                      End Site
                      {
                        OFFSET 1.9757 0 0
                      }
                    }
                  }
                }
              }
            }
          }
        }
        JOINT RightShoulder
        {
          OFFSET -4.57 10.9462 -2.628
          CHANNELS 6 Xposition Yposition Zposition Zrotation Xrotation Yrotation
          JOINT RightArm
          {
            OFFSET -10.5928 -0.5248 -2.2321
            CHANNELS 6 Xposition Yposition Zposition Zrotation Xrotation Yrotation
            JOINT RightForeArm
            {
              OFFSET -27.8415 0 0
              CHANNELS 6 Xposition Yposition Zposition Zrotation Xrotation Yrotation
              JOINT RightHand
              {
                OFFSET -28.3288 0 0.0001
                CHANNELS 6 Xposition Yposition Zposition Zrotation Xrotation Yrotation
                JOINT RightHandPinky1
                {
                  OFFSET -8.0767 -0.4885 -3.806
                  CHANNELS 6 Xposition Yposition Zposition Zrotation Xrotation Yrotation
                  JOINT RightHandPinky2
                  {
                    OFFSET -3.6 0 0.0001
                    CHANNELS 6 Xposition Yposition Zposition Zrotation Xrotation Yrotation
                    JOINT RightHandPinky3
                    {
                      OFFSET -2.1142 0 0
                      CHANNELS 6 Xposition Yposition Zposition Zrotation Xrotation Yrotation
                      End Site
                      {
                        OFFSET -1.9757 0 0
                      }
                    }
                  }
                }
                JOINT RightHandRing1
                {
                  OFFSET -9.1036 -0.0439 -1.8651
                  CHANNELS 6 Xposition Yposition Zposition Zrotation Xrotation Yrotation
                  JOINT RightHandRing2
                  {
                    OFFSET -3.154 0 0
                    CHANNELS 6 Xposition Yposition Zposition Zrotation Xrotation Yrotation
                    JOINT RightHandRing3
                    {
                      OFFSET -2.9377 0 0
                      CHANNELS 6 Xposition Yposition Zposition Zrotation Xrotation Yrotation
                      End Site
                      {
                        OFFSET -2.6475 0 0
                      }
                    }
                  }
                }
                JOINT RightHandMiddle1
                {
                  OFFSET -9.5325 0 0
                  CHANNELS 6 Xposition Yposition Zposition Zrotation Xrotation Yrotation
                  JOINT RightHandMiddle2
                  {
                    OFFSET -3.6982 0 0
                    CHANNELS 6 Xposition Yposition Zposition Zrotation Xrotation Yrotation
                    JOINT RightHandMiddle3
                    {
                      OFFSET -2.9509 0 0
                      CHANNELS 6 Xposition Yposition Zposition Zrotation Xrotation Yrotation
                      End Site
                      {
                        OFFSET -2.8339 0 0.0001
                      }
                    }
                  }
                }
                JOINT RightHandIndex1
                {
                  OFFSET -9.1083 -0.5168 2.2601
                  CHANNELS 6 Xposition Yposition Zposition Zrotation Xrotation Yrotation
                  JOINT RightHandIndex2
                  {
                    OFFSET -3.6764 0 0
                    CHANNELS 6 Xposition Yposition Zposition Zrotation Xrotation Yrotation
                    JOINT RightHandIndex3
                    {
                      OFFSET -2.8831 0 0
                      CHANNELS 6 Xposition Yposition Zposition Zrotation Xrotation Yrotation
                      End Site
                      {
                        OFFSET -2.3927 0 0
                      }
                    }
                  }
                }
                JOINT RightHandThumb1
                {
                  OFFSET -2.4648 -1.5727 2.6826
                  CHANNELS 6 Xposition Yposition Zposition Zrotation Xrotation Yrotation
                  JOINT RightHandThumb2
                  {
                    OFFSET -3.2298 -1.8647 1.8647
                    CHANNELS 6 Xposition Yposition Zposition Zrotation Xrotation Yrotation
                    JOINT RightHandThumb3
                    {
                      OFFSET -2.6526 -1.5314 1.5314
                      CHANNELS 6 Xposition Yposition Zposition Zrotation Xrotation Yrotation
                      End Site
                      {
                        OFFSET -1.9546 -1.1285 1.1285
                      }
                    }
                  }
                }
              }
            }
          }
        }
      }
    }
  }
  JOINT LeftUpLeg
  {
    OFFSET 8.2078 -6.7517 -1.5996
    CHANNELS 6 Xposition Yposition Zposition Zrotation Xrotation Yrotation
    JOINT LeftLeg
    {
      OFFSET 0 -44.3705 0.2846
      CHANNELS 6 Xposition Yposition Zposition Zrotation Xrotation Yrotation
      JOINT LeftFoot
      {
        OFFSET 0 -44.4279 -2.9822
        CHANNELS 6 Xposition Yposition Zposition Zrotation Xrotation Yrotation
        JOINT LeftToeBase
        {
          OFFSET 0 -8.7287 10.7106
          CHANNELS 6 Xposition Yposition Zposition Zrotation Xrotation Yrotation
          End Site
          {
            OFFSET 0 -0.0007 9.2781
          }
        }
      }
    }
  }
  JOINT RightUpLeg
  {
    OFFSET -8.2078 -6.7517 -1.5996
    CHANNELS 6 Xposition Yposition Zposition Zrotation Xrotation Yrotation
    JOINT RightLeg
    {
      OFFSET 0 -44.3705 0.2862
      CHANNELS 6 Xposition Yposition Zposition Zrotation Xrotation Yrotation
      JOINT RightFoot
      {
        OFFSET 0 -44.4277 -2.9838
        CHANNELS 6 Xposition Yposition Zposition Zrotation Xrotation Yrotation
        JOINT RightToeBase
        {
          OFFSET 0 -8.7287 10.7106
          CHANNELS 6 Xposition Yposition Zposition Zrotation Xrotation Yrotation
          End Site
          {
            OFFSET 0 -0.0007 9.2781
          }
        }
      }
    }
  }
}
MOTION
Frames:	4
Frame Time:	0.0333333
2.35957 121.112 0.470916 -4.29773 15.3497 1.85903 -8.88178e-016 10.1816 0.1315 3.80362 20.0695 1.87995 0 10.0835 -1.0008 0.0279708 -0.70839 -1.21718 0 9.1 -1.3734 2.6592 -0.968279 -1.15508 1.77636e-015 16.6717 -2.5162 -1.45222 -4.99553 1.23685 -8.88178e-016 9.6179 1.685 -1.05773 -14.9424 1.05572 0 17.8152 2.585 -2.98177e-016 -4.77083e-015 -0 3.0676 6.4095 9.2836 -2.98177e-016 -4.77083e-015 -0 -3.0676 6.4095 9.2835 -2.98177e-016 -4.77083e-015 -0 4.5704 10.946 -2.628 0.569704 1.3305 -1.72898 10.5924 -0.5246 -2.2321 -36.0299 -38.83 -7.60943 27.8415 -0.0001 -3.55271e-015 -0.000201274 -2.06498e-006 -65.7483 28.3288 0 -1.42109e-014 27.1449 30.8152 -30.6256 2.4661 -1.575 2.6824 0.442015 -7.29308 -2.78428 3.2298 -1.8647 1.8647 31.9846 16.2726 -6.58621 2.6526 -1.5315 1.5315 25.5598 -7.66207 19.5136 9.1093 -0.5171 2.2601 13.2133 4.29515 -13.6783 3.6764 -1.42109e-014 0 -1.49603e-006 1.89159e-006 -5.94031e-007 2.8831 -2.84217e-014 0 14.9208 -0.197134 -1.50526 9.5334 0 -1.42109e-014 8.63952 0.387104 7.79693 3.6982 -1.42109e-014 -7.10543e-015 -3.31409e-005 -5.59155e-006 1.13849e-005 2.9509 0 7.10543e-015 12.7751 -0.144718 -1.29264 9.1045 -0.0439 -1.8651 2.2892 0.566837 23.8913 3.154 -4.26326e-014 -7.10543e-015 -0.000101675 -9.57594e-007 1.00822e-005 2.9377 -1.42109e-014 0 8.24674 -0.0604451 -0.838455 8.0778 -0.4887 -3.8061 -3.51758 0.988784 38.2512 3.6 -1.42109e-014 7.10543e-015 -3.32635e-005 -2.37678e-007 2.51491e-006 2.1142 2.84217e-014 -7.10543e-015 14.9208 -0.197124 -1.50526 -4.57 10.9462 -2.628 2.61392 1.59053 1.44153 -10.5928 -0.5248 -2.2321 38.5307 -17.4704 9.76009 -27.8415 0 -3.55271e-015 -5.33001e-006 2.04117e-006 30.2473 -28.3288 0 0.0001 -40.7943 -5.12424 7.05769 -8.0767 -0.4885 -3.806 10.8071 -0.0538564 -27.2176 -3.6 -2.84217e-014 0.0001 4.77932 -0.0160034 -0.385065 -2.1142 0 0 9.18519 -0.0595073 -0.740785 -9.1036 -0.0439 -1.8651 4.86118 -0.134498 -8.80889 -3.154 1.42109e-014 0 10.793 -0.0820978 -0.869035 -2.9377 0 0 9.75293 -0.0670733 -0.786152 -9.5325 -1.42109e-014 1.77636e-015 -1.36537 0.123396 3.61614 -3.6982 0 -3.55271e-015 7.81283 -0.0430778 -0.630845 -2.9509 -2.84217e-014 3.55271e-015 10.0257 -0.0708631 -0.809941 -9.1083 -0.5168 2.2601 -15.2567 0.834822 21.5635 -3.6764 0 -3.55271e-015 5.41963 -0.0207436 -0.438309 -2.8831 0 3.55271e-015 4.7798 -0.0161389 -0.386687 -2.4648 -1.5727 2.6826 12.0937 -27.746 5.73904 -3.2298 -1.8647 1.8647 -12.9395 15.9388 -1.92308 -2.6526 -1.5314 1.5314 -13.5287 -13.3755 -9.31657 8.2078 -6.7517 -1.5996 25.5141 -55.6944 26.2033 3.55271e-015 -44.3705 0.2846 7.64028 61.3409 -0.253558 0 -44.4279 -2.9822 1.15301 -14.2034 6.47159 0 -8.7287 10.7106 -8.68874e-008 -4.64807 6.17109e-006 -8.2078 -6.7517 -1.5996 -14.0301 -46.5273 -40.1526 -3.55271e-015 -44.3705 0.2862 -15.2529 59.2537 20.9992 0 -44.4277 -2.9838 -1.27643 -20.6747 -15.7313 -8.88178e-016 -8.7287 10.7106 6.9816e-007 -4.89199 2.92636e-006 
2.84572 112.669 1.63649 -4.89324 15.8198 1.90656 0 10.1816 0.1315 4.24584 17.8482 1.26832 -8.88178e-016 10.0835 -1.0008 0.362097 -0.401628 -1.42069 0 9.1 -1.3734 2.62808 -0.698641 -1.39778 -8.88178e-016 16.6717 -2.5162 -1.5361 -5.29112 1.42793 8.88178e-016 9.6179 1.685 -0.858423 -14.851 1.73924 0 17.8152 2.585 9.93923e-017 6.36111e-015 -0 3.0676 6.4095 9.2836 9.93923e-017 6.36111e-015 -0 -3.0676 6.4095 9.2835 9.93923e-017 6.36111e-015 -0 4.5704 10.946 -2.628 1.96166 1.31042 -0.17898 10.5924 -0.5246 -2.2321 -35.0646 -38.8795 1.77332 27.8415 -0.0001 0 -0.000198555 -1.31865e-007 -77.0273 28.3288 0 3.55271e-015 21.1206 32.3667 -27.7566 2.4661 -1.575 2.6824 -8.22168 -5.22503 -5.43774 3.2298 -1.8647 1.8647 31.9845 16.2727 -6.58616 2.6526 -1.5315 1.5315 22.2066 -8.34283 19.7886 9.1093 -0.5171 2.2601 11.1272 4.79121 -13.2882 3.6764 2.84217e-014 1.42109e-014 3.18055e-015 1.2921e-015 7.95139e-016 2.8831 0 0 14.9208 -0.197132 -1.50527 9.5334 0 0 8.63952 0.387102 7.79694 3.6982 0 -7.10543e-015 -0.0001223 9.10385e-007 -5.26673e-007 2.9509 1.42109e-014 -7.10543e-015 10.4124 -0.0962685 -1.0565 9.1045 -0.0439 -1.8651 0.780131 0.510001 24.078 3.154 1.42109e-014 0 -0.000136171 -8.03106e-007 5.96541e-006 2.9377 1.42109e-014 -1.42109e-014 8.24529 -0.060427 -0.838313 8.0778 -0.4887 -3.8061 -5.72075 0.886933 38.5846 3.6 2.84217e-014 -1.06581e-014 1.36664e-016 -2.57178e-015 -3.18055e-015 2.1142 0 7.10543e-015 14.9208 -0.197126 -1.50526 -4.57 10.9462 -2.628 3.31885 1.43305 0.888329 -10.5928 -0.5248 -2.2321 24.4166 -8.90227 3.21021 -27.8415 0 7.10543e-015 1.36091e-006 -1.15905e-008 37.3799 -28.3288 0 0.0001 -40.9977 -12.3887 1.01647 -8.0767 -0.4885 -3.806 21.5976 -0.694589 -28.659 -3.6 0 0.0001 8.7958 -0.0543343 -0.70806 -2.1142 -2.84217e-014 -1.77636e-015 29.453 -0.599994 -2.28245 -9.1036 -0.0439 -1.8651 15.1193 -0.682053 -9.72664 -3.154 -2.84217e-014 -3.55271e-015 15.3469 -0.165497 -1.22829 -2.9377 0 0 30.497 -0.642266 -2.35575 -9.5325 1.42109e-014 7.10543e-015 10.1187 -0.402008 2.81191 -3.6982 0 -3.55271e-015 12.3672 -0.107692 -0.993953 -2.9509 0 0 30.9985 -0.663053 -2.39271 -9.1083 -0.5168 2.2601 -9.77414 0.723044 21.1911 -3.6764 0 7.10543e-015 9.9765 -0.0701747 -0.80398 -2.8831 0 -7.10543e-015 21.3513 -0.318575 -1.68982 -2.4648 -1.5727 2.6826 14.7586 -23.5661 5.44289 -3.2298 -1.8647 1.8647 -14.0346 17.7876 -12.5276 -2.6526 -1.5314 1.5314 -15.0995 -7.6353 -21.9592 8.2078 -6.7517 -1.5996 22.0184 -50.7369 23.6978 0 -44.3705 0.2846 6.1195 52.0851 0.871616 3.55271e-015 -44.4279 -2.9822 -1.78587 -10.7261 3.35275 0 -8.7287 10.7106 -3.81243e-006 -5.69348 -4.70126e-006 -8.2078 -6.7517 -1.5996 -10.6094 -41.8966 -39.3334 2.44249e-015 -44.3705 0.2862 -13.6557 50.4617 20.4572 0 -44.4277 -2.9838 0.535796 -16.4796 -13.2335 1.77636e-015 -8.7287 10.7106 1.15555e-006 -6.8191 -5.17452e-006 
3.38836 102.166 1.92309 -5.36109 17.1353 3.02315 -1.77636e-015 10.1816 0.1315 5.13253 18.2507 0.7117 8.88178e-016 10.0835 -1.0008 0.644401 -0.998716 -1.6094 -8.88178e-016 9.1 -1.3734 2.52825 -1.33109 -1.59225 0 16.6717 -2.5162 -1.76023 -6.03647 1.42311 0 9.6179 1.685 -1.18172 -17.5655 1.46305 4.44089e-016 17.8152 2.585 9.93923e-017 1.59028e-015 1.98785e-016 3.0676 6.4095 9.2836 9.93923e-017 1.59028e-015 1.98785e-016 -3.0676 6.4095 9.2835 9.93923e-017 1.59028e-015 1.98785e-016 4.5704 10.946 -2.628 3.84776 1.15257 1.69477 10.5924 -0.5246 -2.2321 -29.5805 -40.4835 11.2717 27.8415 -0.0001 0 -0.000183671 2.69468e-006 -86.7603 28.3288 0 5.32907e-015 16.9644 28.9997 -21.1427 2.4661 -1.575 2.6824 -16.9006 -1.96507 -7.69288 3.2298 -1.8647 1.8647 31.9845 16.2727 -6.58617 2.6526 -1.5315 1.5315 18.6394 -9.07086 20.0258 9.1093 -0.5171 2.2601 8.90626 5.31058 -12.87 3.6764 0 1.42109e-014 -0.000197855 2.01358e-006 1.77521e-007 2.8831 0 1.42109e-014 14.9208 -0.197127 -1.50525 9.5334 0 0 8.63952 0.387103 7.79696 3.6982 1.42109e-014 0 -0.000114785 1.35106e-006 1.15285e-006 2.9509 -1.42109e-014 1.42109e-014 7.90423 -0.0555345 -0.803879 9.1045 -0.0439 -1.8651 -0.821474 0.445178 24.2751 3.154 0 7.10543e-015 -8.725e-005 -1.96373e-007 1.42451e-005 2.9377 0 7.10543e-015 8.24376 -0.0604061 -0.83817 8.0778 -0.4887 -3.8061 -8.05911 0.769577 38.9328 3.6 -1.42109e-014 0 -0.000270108 -5.18654e-007 -1.17645e-006 2.1142 0 -7.10543e-015 14.9208 -0.197124 -1.50526 -4.57 10.9462 -2.628 0.966426 1.33238 0.485 -10.5928 -0.5248 -2.2321 10.6221 -3.49745 -6.32521 -27.8415 0 7.10543e-015 -3.68127e-006 5.38361e-006 43.1243 -28.3288 0 0.0001 -39.4048 -23.8238 -1.01876 -8.0767 -0.4885 -3.806 22.3272 -0.743226 -28.7512 -3.6 -2.84217e-014 0.0001 9.06746 -0.0577426 -0.729796 -2.1142 0 1.77636e-015 30.8232 -0.655753 -2.3785 -9.1036 -0.0439 -1.8651 15.8128 -0.723977 -9.78593 -3.154 0 -3.55271e-015 15.6548 -0.172163 -1.25233 -2.9377 -2.84217e-014 -3.55271e-015 31.8993 -0.701149 -2.45299 -9.5325 0 -1.77636e-015 10.895 -0.443909 2.75989 -3.6982 -1.42109e-014 0 12.6752 -0.113101 -1.01832 -2.9509 0 -3.55271e-015 32.4163 -0.723451 -2.49048 -9.1083 -0.5168 2.2601 -9.40346 0.713808 21.1652 -3.6764 0 7.10543e-015 10.2848 -0.0745675 -0.828576 -2.8831 -1.42109e-014 7.10543e-015 22.4717 -0.352453 -1.77405 -2.4648 -1.5727 2.6826 14.938 -23.2833 5.4192 -3.2298 -1.8647 1.8647 -14.0958 17.9192 -13.2474 -2.6526 -1.5314 1.5314 -15.1583 -7.23675 -22.8017 8.2078 -6.7517 -1.5996 20.0598 -51.3093 23.1924 -1.77636e-015 -44.3705 0.2846 5.85593 50.2318 0.0278451 0 -44.4279 -2.9822 -4.09109 -7.8992 0.95613 1.77636e-015 -8.7287 10.7106 -2.75986e-006 -7.39733 2.89543e-006 -8.2078 -6.7517 -1.5996 -10.7667 -41.8349 -39.919 2.22045e-016 -44.3705 0.2862 -14.2724 49.4242 20.9807 3.55271e-015 -44.4277 -2.9838 1.04756 -13.5779 -11.363 -1.77636e-015 -8.7287 10.7106 -2.40383e-006 -9.219 -7.9699e-007 
3.8535 90.6035 0.927832 -5.78948 18.0034 4.78328 4.44089e-016 10.1816 0.1315 6.56002 22.8606 0.10409 0 10.0835 -1.0008 0.82999 -2.36038 -1.76628 0 9.1 -1.3734 2.3253 -2.72609 -1.74049 1.77636e-015 16.6717 -2.5162 -2.09811 -7.12387 1.21702 8.88178e-016 9.6179 1.685 -2.13261 -23.3436 0.301936 -2.22045e-016 17.8152 2.585 -7.45443e-017 0 1.98785e-016 3.0676 6.4095 9.2836 -7.45443e-017 0 1.98785e-016 -3.0676 6.4095 9.2835 -7.45443e-017 0 1.98785e-016 4.5704 10.946 -2.628 5.20447 0.927388 2.37797 10.5924 -0.5246 -2.2321 -19.4717 -46.901 19.8824 27.8415 -0.0001 0 -0.000117722 -4.31604e-007 -89.7746 28.3288 0 -7.10543e-015 16.3856 24.6974 -15.9601 2.4661 -1.575 2.6824 -23.4967 1.44323 -8.4665 3.2298 -1.8647 1.8647 31.9861 16.2953 -6.46522 2.6526 -1.5315 1.5315 15.9265 -9.63614 20.1448 9.1093 -0.5171 2.2601 6.89218 5.72016 -12.4978 3.6764 -1.42109e-014 0 -0.292008 -7.50701e-005 0.0298007 2.8831 -1.42109e-014 0 14.6314 -0.189595 -1.4767 9.5334 1.42109e-014 0 8.42003 0.380905 7.77411 3.6982 0 -1.42109e-014 -0.287093 -8.1425e-005 0.029288 2.9509 1.42109e-014 0 5.53237 -0.0272318 -0.563544 9.1045 -0.0439 -1.8651 -2.35831 0.365589 24.1494 3.154 -1.42109e-014 -7.10543e-015 -0.307412 -8.59033e-005 0.0313557 2.9377 1.42109e-014 0 7.9502 -0.0561837 -0.808506 8.0778 -0.4887 -3.8061 -10.1749 0.646087 39.1177 3.6 0 0 -0.287019 -7.18111e-005 0.0292799 2.1142 0 0 14.5973 -0.188714 -1.47334 -4.57 10.9462 -2.628 -4.62903 1.45223 0.42867 -10.5928 -0.5248 -2.2321 2.0201 -3.11746 -17.5421 -27.8415 1.42109e-014 -7.10543e-015 2.14657e-006 2.58305e-007 41.6002 -28.3288 0 0.0001 -33.6043 -38.6279 2.25434 -8.0767 -0.4885 -3.806 16.714 -0.389332 -28.0248 -3.6 0 0.0001 6.97781 -0.0341785 -0.562198 -2.1142 2.84217e-014 -3.55271e-015 20.2815 -0.287771 -1.60881 -9.1036 -0.0439 -1.8651 10.4777 -0.417871 -9.31963 -3.154 0 -3.55271e-015 13.2859 -0.124216 -1.06652 -2.9377 0 0 21.1101 -0.311498 -1.6716 -9.5325 -1.42109e-014 -5.32907e-015 4.92251 -0.141481 3.16986 -3.6982 0 7.10543e-015 10.3058 -0.0748689 -0.830252 -2.9509 0 -1.06581e-014 21.5081 -0.323216 -1.70367 -9.1083 -0.5168 2.2601 -12.2551 0.779691 21.3631 -3.6764 0 0 7.91358 -0.0441955 -0.638929 -2.8831 0 0 13.8519 -0.134968 -1.11108 -2.4648 -1.5727 2.6826 13.5544 -25.4587 5.58647 -3.2298 -1.8647 1.8647 -13.582 16.9269 -7.71965 -2.6526 -1.5314 1.5314 -14.5519 -10.2749 -16.2857 8.2078 -6.7517 -1.5996 22.7099 -58.5764 26.7901 -3.55271e-015 -44.3705 0.2846 7.81814 61.0073 -2.89821 1.77636e-015 -44.4279 -2.9822 -3.60942 -12.4012 -0.184883 1.77636e-015 -8.7287 10.7106 2.07282e-007 -10.0686 1.61882e-006 -8.2078 -6.7517 -1.5996 -15.6055 -46.7393 -43.0168 1.11022e-016 -44.3705 0.2862 -19.4295 60.1127 26.979 0 -44.4277 -2.9838 -2.12916 -20.7454 -13.8938 0 -8.7287 10.7106 2.98485e-006 -11.7887 6.36572e-006 
